<?xml version="1.0" encoding="UTF-8" standalone="no"?>
<svg
   xmlns:dc="http://purl.org/dc/elements/1.1/"
   xmlns:cc="http://creativecommons.org/ns#"
   xmlns:rdf="http://www.w3.org/1999/02/22-rdf-syntax-ns#"
   xmlns:svg="http://www.w3.org/2000/svg"
   xmlns="http://www.w3.org/2000/svg"
   viewBox="0 0 1496 1496"
   height="1496"
   width="1496"
   xml:space="preserve"
   id="svg2"
   version="1.1"><metadata
     id="metadata8"><rdf:RDF><cc:Work
         rdf:about=""><dc:format>image/svg+xml</dc:format><dc:type
           rdf:resource="http://purl.org/dc/dcmitype/StillImage" /></cc:Work></rdf:RDF></metadata><defs
     id="defs6"><clipPath
       id="clipPath18"
       clipPathUnits="userSpaceOnUse"><path
         id="path16"
         d="M 0,1122 H 1122 V 0 H 0 Z" /></clipPath><clipPath
       id="clipPath30"
       clipPathUnits="userSpaceOnUse"><path
         id="path28"
         d="M 0,1122 H 1122 V 0 H 0 Z" /></clipPath><clipPath
       id="clipPath54"
       clipPathUnits="userSpaceOnUse"><path
         id="path52"
         d="M 0,1122 H 1122 V 0 H 0 Z" /></clipPath><clipPath
       id="clipPath62"
       clipPathUnits="userSpaceOnUse"><path
         id="path60"
         d="m 672.699,810.917 h 94.97 v -31.822 h -94.97 z" /></clipPath><clipPath
       id="clipPath78"
       clipPathUnits="userSpaceOnUse"><path
         id="path76"
         d="m 680.945,478.106 h 93.637 v -33.268 h -93.637 z" /></clipPath><clipPath
       id="clipPath94"
       clipPathUnits="userSpaceOnUse"><path
         id="path92"
         d="m 368.46,733.974 h 92.812 V 696.085 H 368.46 Z" /></clipPath><clipPath
       id="clipPath110"
       clipPathUnits="userSpaceOnUse"><path
         id="path108"
         d="M 344.508,918.065 H 541.939 V 834.389 H 344.508 Z" /></clipPath><clipPath
       id="clipPath126"
       clipPathUnits="userSpaceOnUse"><path
         id="path124"
         d="M 349.103,568.899 H 547.87 V 481.046 H 349.103 Z" /></clipPath><clipPath
       id="clipPath142"
       clipPathUnits="userSpaceOnUse"><path
         id="path140"
         d="M 604.342,713.11 H 795.659 V 617.16 H 604.342 Z" /></clipPath><clipPath
       id="clipPath158"
       clipPathUnits="userSpaceOnUse"><path
         id="path156"
         d="m 552.11,967.319 h 34.547 V 928.425 H 552.11 Z" /></clipPath></defs><g
     transform="matrix(1.3333333,0,0,-1.3333333,0,1496)"
     id="g10"><g
       id="g12"><g
         clip-path="url(#clipPath18)"
         id="g14"><g
           transform="translate(697.9797,266.4539)"
           id="g20"><path
             id="path22"
             style="fill:#68c082;fill-opacity:1;fill-rule:nonzero;stroke:none"
             d="m 0,0 c 16.893,0 27.796,17.887 20.055,32.903 -25.39,49.257 -76.751,82.941 -135.985,82.941 -59.234,0 -110.594,-33.684 -135.985,-82.941 C -259.655,17.887 -248.753,0 -231.859,0 Z" /></g></g></g><g
       id="g24"><g
         clip-path="url(#clipPath30)"
         id="g26"><g
           transform="translate(583.4109,329.0213)"
           id="g32"><path
             id="path34"
             style="fill:#a57c52;fill-opacity:1;fill-rule:nonzero;stroke:none"
             d="m 0,0 h -19.408 c -6.569,0 -11.893,4.125 -11.893,9.214 v 612.351 c 0,9.241 9.669,16.733 21.597,16.733 11.928,0 21.597,-7.492 21.597,-16.733 V 9.214 C 11.893,4.125 6.568,0 0,0" /></g><g
           transform="translate(767.2426,792.3046)"
           id="g36"><path
             id="path38"
             style="fill:#b89ac8;fill-opacity:1;fill-rule:nonzero;stroke:none"
             d="M 0,0 C -0.299,-7.616 -6.716,-13.548 -14.332,-13.249 L -356.521,0.186 c -9.576,0.376 -18.615,4.452 -25.133,11.332 l -34.296,36.2 c -9.563,10.095 -8.94,25.974 1.385,35.288 l 37.029,33.4 c 7.038,6.348 16.369,9.702 25.945,9.326 L -9.403,112.297 c 7.617,-0.299 13.548,-6.716 13.249,-14.332 z" /></g><g
           transform="translate(374.373,616.613)"
           id="g40"><path
             id="path42"
             style="fill:#828ac4;fill-opacity:1;fill-rule:nonzero;stroke:none"
             d="m 0,0 c 0.459,-7.608 6.999,-13.404 14.607,-12.945 l 341.831,20.63 c 9.566,0.578 18.517,4.842 24.89,11.858 l 33.526,36.914 c 9.349,10.293 8.392,26.156 -2.127,35.251 l -37.723,32.613 c -7.17,6.199 -16.569,9.356 -26.135,8.779 L 7.039,112.47 C -0.57,112.011 -6.365,105.471 -5.906,97.863 Z" /></g><g
           transform="translate(774.5832,459.5427)"
           id="g44"><path
             id="path46"
             style="fill:#64c7cf;fill-opacity:1;fill-rule:nonzero;stroke:none"
             d="m 0,0 c 0.084,-7.622 -6.027,-13.868 -13.649,-13.952 l -342.431,-3.764 c -9.583,-0.106 -18.816,3.511 -25.671,10.055 l -36.07,34.433 c -10.059,9.601 -10.233,25.492 -0.389,35.312 l 35.305,35.218 c 6.71,6.693 15.861,10.512 25.444,10.617 l 342.431,3.764 c 7.622,0.084 13.869,-6.027 13.952,-13.648 z" /></g></g></g><g
       id="g48"><g
         clip-path="url(#clipPath54)"
         id="g50"><g
           id="g56"><g
             id="g58" /><g
             id="g70"><g
               style="opacity:0.19999701"
               id="g68"
               clip-path="url(#clipPath62)"><g
                 id="g66"
                 transform="translate(766.9403,792.3554)"><path
                   id="path64"
                   style="fill:#000000;fill-opacity:1;fill-rule:nonzero;stroke:none"
                   d="m 0,0 0.729,18.562 c -13.604,-27.602 -94.97,-28.674 -94.97,-28.674 l 79.909,-3.137 C -6.716,-13.548 -0.299,-7.616 0,0" /></g></g></g></g><g
           id="g72"><g
             id="g74" /><g
             id="g86"><g
               style="opacity:0.19999701"
               id="g84"
               clip-path="url(#clipPath78)"><g
                 id="g82"
                 transform="translate(774.5812,459.5309)"><path
                   id="path80"
                   style="fill:#000000;fill-opacity:1;fill-rule:nonzero;stroke:none"
                   d="m 0,0 -0.176,18.575 c -12.243,-28.232 -93.46,-33.268 -93.46,-33.268 l 79.967,0.761 C -6.048,-13.859 0.073,-7.622 0,0" /></g></g></g></g><g
           id="g88"><g
             id="g90" /><g
             id="g102"><g
               style="opacity:0.19999701"
               id="g100"
               clip-path="url(#clipPath94)"><g
                 id="g98"
                 transform="translate(368.4851,714.6282)"><path
                   id="path96"
                   style="fill:#ffffff;fill-opacity:1;fill-rule:nonzero;stroke:none"
                   d="M 0,0 1.103,-18.543 C 11.921,10.265 92.787,19.346 92.787,19.346 L 12.957,14.597 C 5.349,14.144 -0.453,7.609 0,0" /></g></g></g></g><g
           id="g104"><g
             id="g106" /><g
             id="g118"><g
               style="opacity:0.16999799"
               id="g116"
               clip-path="url(#clipPath110)"><g
                 id="g114"
                 transform="translate(415.6514,918.037)"><path
                   id="path112"
                   style="fill:#ffffff;fill-opacity:1;fill-rule:nonzero;stroke:none"
                   d="m 0,0 c -9.576,0.376 -18.907,-2.978 -25.945,-9.326 l -37.028,-33.4 c -10.326,-9.314 -10.949,-25.193 -1.386,-35.288 l 5.338,-5.634 c -1.949,10.102 -3.314,23.78 2.179,28.611 10.791,9.492 36.938,32.511 46.851,41.107 9.914,8.595 34.51,10.489 123.233,9.085 5.429,-0.086 9.735,-0.122 13.046,-0.113 z" /></g></g></g></g><g
           id="g120"><g
             id="g122" /><g
             id="g134"><g
               style="opacity:0.16999799"
               id="g132"
               clip-path="url(#clipPath126)"><g
                 id="g130"
                 transform="translate(417.0518,567.6125)"><path
                   id="path128"
                   style="fill:#ffffff;fill-opacity:1;fill-rule:nonzero;stroke:none"
                   d="m 0,0 c -9.583,-0.116 -18.729,-3.944 -25.432,-10.645 l -35.265,-35.257 c -9.835,-9.831 -9.642,-25.721 0.427,-35.312 l 5.619,-5.352 c -2.464,9.988 -4.53,23.578 0.709,28.685 10.289,10.032 39.741,39.626 46.89,44.566 10.795,7.46 31.715,11.137 120.394,14.288 5.426,0.192 14.17,0.135 17.476,0.313 z" /></g></g></g></g><g
           id="g136"><g
             id="g138" /><g
             id="g150"><g
               style="opacity:0.16999799"
               id="g148"
               clip-path="url(#clipPath142)"><g
                 id="g146"
                 transform="translate(730.5295,624.2297)"><path
                   id="path144"
                   style="fill:#000000;fill-opacity:1;fill-rule:nonzero;stroke:none"
                   d="m 0,0 c 9.569,0.536 18.538,4.762 24.941,11.75 l 33.685,36.769 c 9.393,10.254 8.504,26.12 -1.975,35.26 l -5.849,5.101 c 2.9,-9.871 5.56,-23.357 0.55,-28.688 C 41.513,49.717 17.673,24.317 8.621,14.817 -0.431,5.318 -24.735,1.095 -113.19,-5.942 c -5.413,-0.431 -9.702,-0.805 -12.997,-1.128 z" /></g></g></g></g><g
           id="g152"><g
             id="g154" /><g
             id="g166"><g
               style="opacity:0.25"
               id="g164"
               clip-path="url(#clipPath158)"><g
                 id="g162"
                 transform="translate(586.6572,963.9544)"><path
                   id="path160"
                   style="fill:#ffffff;fill-opacity:1;fill-rule:nonzero;stroke:none"
                   d="m 0,0 c -3.611,2.103 -8.085,3.365 -12.95,3.365 -11.928,0 -21.597,-7.492 -21.597,-16.733 v -22.161 c 0,0 5.204,38.172 34.547,35.529" /></g></g></g></g></g></g></g></svg>